<svg xmlns="http://www.w3.org/2000/svg" width="60" height="60" viewBox="0 0 60 60">
    <defs>
        <style>
            .cls-2{fill:none;stroke:#000;stroke-width:2px}
        </style>
    </defs>
    <g id="ico_consideration" transform="translate(-352 -900)">
        <path id="area" fill="none" d="M0 0H60V60H0z" transform="translate(352 900)"/>
        <g id="ico">
            <path id="패스_2818" d="M2400.625 4967.058h4.314l12.452 6.163 17.452-5 13.76-12.841s-6.5-3.116-9.741-.984-4.862 3.304-4.862 3.304" class="cls-2" transform="translate(-2042 -4020)"/>
            <path id="패스_2819" d="M2401.312 4955.181h20s5.578-.463 8.881 1.946c2.231 1.83 4.552 5.132.313 5.087a84.83 84.83 0 0 0-12.228-.269" class="cls-2" transform="translate(-2042 -4020)"/>
            <g id="합치기_35" fill="none" stroke="none">
                <path d="M-2030.78-3997.052l-.24-.24a2.066 2.066 0 0 1-.3-.246l-8.8-8.8a5.5 5.5 0 0 1 0-7.778 5.5 5.5 0 0 1 7.778 0l2.5 2.5 2.5-2.5a5.5 5.5 0 0 1 7.778 0 5.5 5.5 0 0 1 0 7.778l-9.281 9.281a1.371 1.371 0 0 1-.972.4 1.371 1.371 0 0 1-.963-.395z" transform="translate(2411.722 4923.665)"/>
                <path fill="#000" d="M-2029.82-3998.895l8.852-8.852c1.364-1.365 1.364-3.586 0-4.95-.662-.661-1.54-1.025-2.475-1.025s-1.814.364-2.475 1.025l-2.5 2.5-1.415 1.415-1.414-1.415-2.5-2.5c-.661-.66-1.54-1.025-2.475-1.025s-1.814.364-2.475 1.025c-1.365 1.364-1.365 3.585 0 4.95l8.795 8.795.01.008.071.05m.014 2.245c-.352 0-.704-.134-.973-.403l-.24-.24c-.104-.07-.203-.153-.296-.246l-8.795-8.795c-2.148-2.148-2.148-5.63 0-7.778 1.074-1.074 2.481-1.61 3.889-1.61s2.815.536 3.889 1.61l2.5 2.5 2.5-2.5c1.074-1.074 2.482-1.611 3.89-1.611 1.407 0 2.815.537 3.889 1.61 2.148 2.149 2.148 5.631 0 7.779l-9.281 9.281c-.269.269-.62.403-.972.403z" transform="translate(2411.722 4923.665)"/>
            </g>
        </g>
    </g>
</svg>
