<svg xmlns="http://www.w3.org/2000/svg" width="60" height="60" viewBox="0 0 60 60">
    <defs>
        <style>
            .cls-1{fill:none}.cls-2,.cls-3{fill:#fff}.cls-2{stroke:#010101;stroke-width:2px}.cls-5{fill:#010101}.cls-6{stroke:none}
        </style>
    </defs>
    <g id="ico_execution" transform="translate(-113 -900)">
        <path id="area" d="M0 0H60V60H0z" class="cls-1" transform="translate(113 900)"/>
        <g id="그룹_392" transform="translate(42.019 1.615)">
            <g id="사각형_678" class="cls-2" transform="translate(98.981 902.385)">
                <rect width="8" height="24" class="cls-6" rx="4"/>
                <rect width="6" height="22" x="1" y="1" class="cls-1" rx="3"/>
            </g>
            <g id="사각형_679" class="cls-2" transform="translate(92.981 906.385)">
                <rect width="8" height="24" class="cls-6" rx="4"/>
                <rect width="6" height="22" x="1" y="1" class="cls-1" rx="3"/>
            </g>
            <g id="사각형_680" class="cls-2" transform="translate(86.981 914.385)">
                <rect width="8" height="19" class="cls-6" rx="4"/>
                <rect width="6" height="17" x="1" y="1" class="cls-1" rx="3"/>
            </g>
            <g id="사각형_681" class="cls-2" transform="translate(104.981 907.385)">
                <rect width="8" height="24" class="cls-6" rx="4"/>
                <rect width="6" height="22" x="1" y="1" class="cls-1" rx="3"/>
            </g>
            <path id="사각형_682" d="M0 0H25V20H0z" class="cls-3" transform="translate(88.981 920.385)"/>
            <path id="패스_2823" fill="none" stroke="#010101" stroke-width="2px" d="M91.981 934.231s-.352 6.389.914 8.657.987 1.566 2.353 4.134 1.207 6.712 1.207 6.712" transform="translate(-4 -6)"/>
            <path id="사각형_683" d="M0 0H2V6H0z" class="cls-5" transform="translate(92.981 919.385)"/>
            <path id="사각형_684" d="M0 0H2V6H0z" class="cls-5" transform="translate(98.981 919.385)"/>
            <path id="사각형_685" d="M0 0H2V6H0z" class="cls-5" transform="translate(104.981 919.385)"/>
            <path id="사각형_686" d="M0 0H2V6H0z" class="cls-5" transform="translate(110.981 919.385)"/>
            <path id="패스_2824" d="M110.122 945.532c.134-7.051 1.842-5.251 4.177-11.545s4.831-13.352 4.352-13.749-1.552-1.105-4.7.672c-2.055 1.33-3.247 5.094-3.247 5.094s-3.586 1.738-4.121 7.495" class="cls-2"/>
        </g>
        <g id="사각형_687" class="cls-2">
            <path d="M0 0H28V11H0z" class="cls-6" transform="translate(129 947)"/>
            <path d="M1 1H27V10H1z" class="cls-1" transform="translate(129 947)"/>
        </g>
        <path id="사각형_688" d="M0 0H24V5H0z" class="cls-3" transform="translate(131 955)"/>
    </g>
</svg>
