<svg xmlns="http://www.w3.org/2000/svg" width="60" height="60" viewBox="0 0 60 60">
    <g>
        <g>
            <g fill="#fff">
                <path d="M-2021-3976h-10v-7.731l-.667-.236c-3.283-1.16-6.099-3.275-8.143-6.116-2.087-2.902-3.19-6.33-3.19-9.917 0-4.541 1.769-8.81 4.98-12.021 3.21-3.21 7.48-4.98 12.02-4.98 4.54 0 8.81 1.77 12.02 4.98 3.211 3.21 4.98 7.48 4.98 12.02 0 3.587-1.103 7.016-3.19 9.917-2.044 2.841-4.86 4.957-8.143 6.117l-.667.236v7.731z" transform="translate(-591 -900) translate(0 -1) translate(2647 4925)"/>
                <path fill="#010101" d="M-2022-3977v-7.438l1.333-.472c3.09-1.092 5.741-3.083 7.665-5.758 1.964-2.73 3.002-5.957 3.002-9.332 0-4.274-1.665-8.292-4.687-11.314-3.022-3.022-7.04-4.686-11.313-4.686-4.274 0-8.292 1.664-11.314 4.686-3.021 3.022-4.686 7.04-4.686 11.314 0 3.375 1.038 6.603 3.002 9.333 1.924 2.674 4.574 4.665 7.665 5.757l1.333.472v7.438h8m2 7h-12v-2h12v2zm0-5h-12v-8.024c-6.991-2.47-12-9.139-12-16.976 0-9.941 8.058-18 18-18 9.94 0 18 8.059 18 18 0 7.837-5.009 14.505-12 16.976v8.024z" transform="translate(-591 -900) translate(0 -1) translate(2647 4925)"/>
            </g>
            <path fill="none" stroke="#010101" stroke-linecap="round" stroke-width="2px" d="M2672.418 4932.891a8.979 8.979 0 0 1 5.353 9.3" transform="translate(-591 -900) translate(0 -1) translate(-2045 -4018)"/>
        </g>
    </g>
</svg>
