<svg xmlns="http://www.w3.org/2000/svg" width="216" height="14.292" viewBox="0 0 216 14.292">
  <g id="그룹_2" data-name="그룹 2" transform="translate(-366.28 -362.572)">
    <g id="그룹_1" data-name="그룹 1">
      <path id="패스_1" data-name="패스 1" d="M591.111,368.77c-.554-.127-1.472-.315-2.208-.464-.153-.033-.3-.064-.449-.093-.251-.051-.483-.1-.685-.151-1.453-.289-2.354-.618-2.354-1.363a1.136,1.136,0,0,1,.352-.812,3.067,3.067,0,0,1,2.171-.744h.142a8.35,8.35,0,0,1,5.279,1.978l.162.145,1.247-2.423-.121-.084a10.411,10.411,0,0,0-6.387-2.164,6.883,6.883,0,0,0-4.773,1.8,3.555,3.555,0,0,0-1.078,2.666c.074,2.869,3.25,3.642,6.815,4.239,1.521.254,2.6.5,2.661,1.39a1.157,1.157,0,0,1-.357.823,4.083,4.083,0,0,1-2.863.847h-.147a9.021,9.021,0,0,1-5.181-2.057l-.171-.152L582,374.729l.117.079a12.325,12.325,0,0,0,6.425,2.071,7.118,7.118,0,0,0,5.217-1.719,3.72,3.72,0,0,0,1.09-2.786c-.052-1.917-1.242-3.063-3.741-3.6" transform="translate(-142.15 -0.015)" fill="#1b1617"/>
      <path id="패스_2" data-name="패스 2" d="M540.638,362.595a7.547,7.547,0,0,0-5.682,2.262,7.026,7.026,0,0,0-2.005,4.925,6.807,6.807,0,0,0,2.314,5.133,8.287,8.287,0,0,0,10.713,0,6.72,6.72,0,0,0,2.313-5.134,7.013,7.013,0,0,0-1.969-4.923,7.63,7.63,0,0,0-5.684-2.264m3.268,10.321a4.726,4.726,0,0,1-6.559,0A4.392,4.392,0,0,1,536,369.781a4.637,4.637,0,0,1,9.273,0,4.336,4.336,0,0,1-1.369,3.135" transform="translate(-109.829 -0.015)" fill="#1b1617"/>
      <path id="패스_3" data-name="패스 3" d="M488.453,364.108l-2.928,8.994-2.918-8.994H479.63l-2.93,8.98-2.923-8.98h-3.12l4.56,13.137.068.113h2.87l2.964-8.674,2.964,8.674h2.892l4.588-13.251Z" transform="translate(-68.782 -1.011)" fill="#1b1617"/>
      <path id="패스_4" data-name="패스 4" d="M425.218,366.545h5.565v10.813h3.066V366.545h5.565v-2.438h-14.2Z" transform="translate(-38.799 -1.011)" fill="#1b1617"/>
      <path id="패스_5" data-name="패스 5" d="M372.371,364.108l-6.092,13.25h3.125l1.452-3.282H376.9l1.486,3.282h3.151l-6.089-13.25Zm-.409,7.523,1.933-4.251,1.934,4.251Z" transform="translate(0 -1.011)" fill="#1b1617"/>
      <path id="패스_6" data-name="패스 6" d="M930.76,372.264a5.84,5.84,0,0,1-4.449,1.96h-.046a4.726,4.726,0,0,1-4.789-4.5,4.362,4.362,0,0,1,1.263-3.156,4.948,4.948,0,0,1,3.494-1.369,6.214,6.214,0,0,1,4.516,1.9l.15.146,1.453-2.312-.113-.094a9.175,9.175,0,0,0-6.024-2.269,8.508,8.508,0,0,0-5.169,1.856,6.79,6.79,0,0,0-2.587,5.36c0,4.382,3.783,6.871,7.522,7.066q.21.011.418.011a8.734,8.734,0,0,0,5.98-2.408l.108-.1L930.9,372.1Z" transform="translate(-363.885 0)" fill="#1b1617"/>
      <path id="패스_7" data-name="패스 7" d="M836.363,364.108h-2.945v13.251h11.544v-2.5h-8.6Z" transform="translate(-307.818 -1.011)" fill="#1b1617"/>
      <path id="패스_8" data-name="패스 8" d="M631.961,362.595a7.51,7.51,0,0,0-5.684,2.262,7.043,7.043,0,0,0-2,4.925,6.8,6.8,0,0,0,2.314,5.133,8.033,8.033,0,0,0,5.37,1.964,8.159,8.159,0,0,0,5.374-1.965,6.829,6.829,0,0,0,2.3-5.132,7.075,7.075,0,0,0-1.987-4.923,7.668,7.668,0,0,0-5.687-2.264m3.259,10.321a4.538,4.538,0,0,1-3.259,1.323,4.655,4.655,0,0,1-3.3-1.323,4.392,4.392,0,0,1-1.348-3.135,4.637,4.637,0,0,1,9.273,0,4.341,4.341,0,0,1-1.367,3.135" transform="translate(-170.009 -0.015)" fill="#1b1617"/>
      <path id="패스_9" data-name="패스 9" d="M969.591,374.814v-3.347H977.4v-2.459h-7.807v-2.593h8.062v-2.453H966.646v13.3h11.241v-2.448Z" transform="translate(-395.607 -0.915)" fill="#1b1617"/>
      <path id="패스_10" data-name="패스 10" d="M878.926,364.108l-6.121,13.25h3.133l1.455-3.282h6.039l1.5,3.282h3.14l-6.094-13.25Zm-.428,7.523,1.932-4.252,1.928,4.252Z" transform="translate(-333.831 -1.011)" fill="#1b1617"/>
      <path id="패스_11" data-name="패스 11" d="M799.942,364.813a7.133,7.133,0,0,0-3.782-.821h-7.5V377.3h3.119v-4.23h4.353a7.163,7.163,0,0,0,3.755-.83,4.66,4.66,0,0,0,.055-7.427m-3.425,5.762h-4.739v-4.067h4.739a2.461,2.461,0,0,1,1.492.487,1.854,1.854,0,0,1,.685,1.547,2.046,2.046,0,0,1-2.176,2.034" transform="translate(-278.326 -0.935)" fill="#1b1617"/>
      <path id="패스_12" data-name="패스 12" d="M683.548,370.946l-4.04-6.838h-3.561v13.25h2.943V368.5l3.868,6.32h1.623l3.834-6.3v8.835h2.966v-13.25h-3.573Z" transform="translate(-204.057 -1.011)" fill="#1b1617"/>
      <path id="패스_13" data-name="패스 13" d="M732.227,371.467h7.807v-2.459h-7.807v-2.593h8.033v-2.453H729.281v13.3h11.241v-2.448h-8.3Z" transform="translate(-239.197 -0.915)" fill="#1b1617"/>
    </g>
  </g>
</svg>
