<svg xmlns="http://www.w3.org/2000/svg" width="60" height="60" viewBox="0 0 60 60">
    <defs>
        <style>
            .cls-2,.cls-4,.cls-5{fill:#fff}.cls-2,.cls-5{stroke:#010101}.cls-2{stroke-width:2px}.cls-3{fill:#010101}.cls-6,.cls-8{stroke:none}.cls-7{fill:none}.cls-8{fill:#010101}
        </style>
    </defs>
    <g id="ico_pickup" transform="translate(-591 -900)">
        <g id="그룹_414" transform="translate(-7 -1)">
            <g id="사각형_831" class="cls-2">
                <path d="M0 0H38V26H0z" class="cls-6" transform="translate(607 924)"/>
                <path d="M1 1H37V25H1z" class="cls-7" transform="translate(607 924)"/>
            </g>
            <path id="사각형_833" d="M0 0H35V2H0z" class="cls-3" transform="translate(609 940)"/>
            <g id="그룹_427" transform="translate(-5 754)">
                <path id="사각형_834" d="M0 0H2V6H0z" class="cls-3" transform="translate(630 163)"/>
                <g id="패스_3097" class="cls-4">
                    <path d="M4 7.429c-1.654 0-3-1.346-3-3C1 4.1 1.18 3.053 2.845.42c.409-.646.82-1.247 1.158-1.727C5.437.724 7 3.347 7 4.43c0 1.654-1.346 3-3 3z" class="cls-6" transform="translate(627 158)"/>
                    <path d="M4 .474c-.094.144-.19.292-.285.442C2.045 3.548 2.001 4.396 2 4.429c0 1.102.897 2 2 2S6 5.53 6 4.43c-.001-.034-.045-.878-1.7-3.492C4.2.781 4.1.626 4 .474M4-3s4 5.22 4 7.429c0 2.209-1.79 4-4 4s-4-1.791-4-4C0 2.219 4-3 4-3z" class="cls-8" transform="translate(627 158)"/>
                </g>
                <path id="사각형_835" d="M0 0H2V6H0z" class="cls-3" transform="translate(619 163)"/>
                <g id="패스_3098" class="cls-4">
                    <path d="M4 7.429c-1.654 0-3-1.346-3-3C1 4.1 1.18 3.053 2.845.42c.409-.646.82-1.247 1.158-1.727C5.437.724 7 3.347 7 4.43c0 1.654-1.346 3-3 3z" class="cls-6" transform="translate(616 158)"/>
                    <path d="M4 .474c-.094.144-.19.292-.285.442C2.045 3.548 2.001 4.396 2 4.429c0 1.102.897 2 2 2S6 5.53 6 4.43c-.001-.034-.045-.878-1.7-3.492C4.2.781 4.1.626 4 .474M4-3s4 5.22 4 7.429c0 2.209-1.79 4-4 4s-4-1.791-4-4C0 2.219 4-3 4-3z" class="cls-8" transform="translate(616 158)"/>
                </g>
                <path id="사각형_836" d="M0 0H2V6H0z" class="cls-3" transform="translate(641 163)"/>
                <g id="패스_3099" class="cls-4">
                    <path d="M4 7.429c-1.654 0-3-1.346-3-3C1 4.1 1.18 3.053 2.845.42c.409-.646.82-1.247 1.158-1.727C5.437.724 7 3.347 7 4.43c0 1.654-1.346 3-3 3z" class="cls-6" transform="translate(638 158)"/>
                    <path d="M4 .474c-.094.144-.19.292-.285.442C2.045 3.548 2.001 4.396 2 4.429c0 1.102.897 2 2 2S6 5.53 6 4.43c-.001-.034-.045-.878-1.7-3.492C4.2.781 4.1.626 4 .474M4-3s4 5.22 4 7.429c0 2.209-1.79 4-4 4s-4-1.791-4-4C0 2.219 4-3 4-3z" class="cls-8" transform="translate(638 158)"/>
                </g>
            </g>
            <g id="plus" transform="translate(4440 -3021)">
                <g id="타원_165" class="cls-2" transform="translate(-3805 3955)">
                    <circle cx="10" cy="10" r="10" class="cls-6"/>
                    <circle cx="10" cy="10" r="9" class="cls-7"/>
                </g>
                <g id="사각형_807" class="cls-5">
                    <path d="M0 0H6V2H0z" class="cls-6" transform="translate(-3796 3965)"/>
                    <path d="M0.5 0.5H5.5V1.5H0.5z" class="cls-7" transform="translate(-3796 3965)"/>
                </g>
                <g id="사각형_808" class="cls-5">
                    <path d="M0 0H2V6H0z" class="cls-6" transform="translate(-3796 3961)"/>
                    <path d="M0.5 0.5H1.5V5.5H0.5z" class="cls-7" transform="translate(-3796 3961)"/>
                </g>
            </g>
        </g>
    </g>
</svg>
