<svg xmlns="http://www.w3.org/2000/svg" width="120" height="120" viewBox="0 0 120 120">
    <defs>
        <style>
            .cls-1{fill:none}.cls-3{fill:#fff}.cls-4,.cls-5{stroke:none}.cls-5{fill:#010101}
        </style>
    </defs>
    <g id="ico_stamp" transform="translate(-16.5 -138.5)">
        <path id="area" d="M0 0H120V120H0z" class="cls-1" transform="translate(16.5 138.5)"/>
        <g id="그룹_411" transform="translate(7.002 8)">
            <g id="사각형_536" fill="#fff" stroke="#010101" stroke-width="2px">
                <path d="M0 0h68v19a1 1 0 0 1-1 1H1a1 1 0 0 1-1-1V0z" class="cls-4" transform="translate(35.498 216.5)"/>
                <path d="M2 1h64a1 1 0 0 1 1 1v17H1V2a1 1 0 0 1 1-1z" class="cls-1" transform="translate(35.498 216.5)"/>
            </g>
            <g id="합치기_22" class="cls-3">
                <path d="M27.708 61H10.292l-8.73-36.797-.001-.005-.002-.005c-.03-.122-.059-.243-.085-.36l-.001-.004-.001-.005-.098-.414-.1-.582C1.092 21.762 1 20.668 1 19.578c0-2.513.477-4.95 1.418-7.242.909-2.212 2.209-4.2 3.865-5.906C9.68 2.93 14.198 1 19 1c4.802 0 9.319 1.929 12.717 5.43 1.656 1.706 2.956 3.694 3.865 5.906.94 2.293 1.418 4.73 1.418 7.241 0 1.09-.092 2.184-.275 3.25l-.048.285-.006.023-.005.022-.004.022c-.105.55-.235 1.101-.388 1.638l-.006.022-.005.021L27.708 61z" class="cls-4" transform="translate(50.498 144.5)"/>
                <path d="M26.917 60l8.373-35.37.01-.043.012-.043c.145-.509.268-1.03.368-1.552l.008-.044.009-.036.043-.253c.172-1.01.26-2.048.26-3.082 0-4.706-1.776-9.128-5-12.45C27.79 3.82 23.53 2 19 2S10.209 3.82 7 7.127c-3.224 3.322-5 7.744-5 12.45 0 1.035.087 2.072.26 3.082l.094.551.09.383.003.01.002.01c.025.11.052.224.081.34l.003.01.002.009L11.082 60h15.835m1.582 2H9.5L.59 24.434c-.031-.126-.061-.252-.09-.38l-.251-1.058h.04C.1 21.886 0 20.744 0 19.577 0 8.765 8.507 0 19 0s19 8.765 19 19.577c0 1.167-.1 2.309-.289 3.42h.021l-.088.37c-.111.584-.248 1.16-.408 1.724L28.499 62z" class="cls-5" transform="translate(50.498 144.5)"/>
            </g>
            <g id="합치기_21" class="cls-3">
                <path d="M79 31H1V9c0-1.103.897-2 2-2h22V1h30v6h22c1.103 0 2 .897 2 2v22z" class="cls-4" transform="translate(29.498 193.5)"/>
                <path d="M78 30V9c0-.552-.449-1-1-1H54V2H26v6H3c-.552 0-1 .448-1 1v21h76m1 2H1c-.553 0-1-.448-1-1V9c0-1.657 1.343-3 3-3h21V1c0-.552.448-1 1-1h30c.552 0 1 .448 1 1v5h21c1.656 0 3 1.343 3 3v22c0 .552-.448 1-1 1z" class="cls-5" transform="translate(29.498 193.5)"/>
            </g>
        </g>
    </g>
</svg>
