<svg xmlns="http://www.w3.org/2000/svg" width="60" height="60" viewBox="0 0 60 60">
    <defs>
        <style>
            .cls-5{fill:#fff;stroke:#010101}.cls-6{stroke:none}.cls-8{fill:none}
        </style>
    </defs>
    <g id="ico_s_accumulate" transform="translate(-1454 -2019)">
        <g id="합치기_47" fill="#fff">
            <path d="M-7000.507-4980.687l-.095-.001H-7000.63l-.093.001c-1.638 0-3.173-.646-4.323-1.82l-18.396-18.8c-4.28-4.375-4.217-11.555.141-16.006 2.132-2.175 4.948-3.374 7.932-3.374 2.91 0 5.637 1.15 7.678 3.235l6.36 6.5.716.731.715-.73 6.361-6.501c2.041-2.086 4.768-3.235 7.678-3.235 2.984 0 5.8 1.198 7.931 3.374 4.359 4.45 4.422 11.63.141 16.004l-18.396 18.802c-1.149 1.174-2.683 1.82-4.32 1.82z" class="cls-6" transform="translate(8484.616 7049.687)"/>
            <path fill="#010101" d="M-7000.507-4981.687c1.366 0 2.647-.54 3.606-1.52l18.397-18.801c3.903-3.989 3.84-10.54-.141-14.605-1.941-1.983-4.504-3.074-7.217-3.074-2.639 0-5.112 1.042-6.963 2.935l-6.362 6.5-1.43 1.461-1.429-1.46-6.36-6.501c-1.853-1.893-4.325-2.935-6.964-2.935-2.713 0-5.276 1.092-7.217 3.074-3.981 4.065-4.044 10.617-.141 14.606l18.396 18.8c.96.98 2.24 1.52 3.608 1.52l.077-.001h.06l.08.001m0 2l-.11-.001-.107.001c-1.831 0-3.651-.706-5.037-2.121l-18.397-18.8c-4.667-4.769-4.602-12.56.142-17.405 2.397-2.447 5.53-3.674 8.646-3.674 3.05 0 6.084 1.177 8.392 3.536l6.362 6.5 6.362-6.5c2.308-2.36 5.341-3.536 8.392-3.536 3.115 0 6.249 1.227 8.646 3.674 4.744 4.845 4.807 12.636.141 17.404l-18.396 18.8c-1.385 1.416-3.205 2.122-5.036 2.122z" transform="translate(8484.616 7049.687)"/>
        </g>
        <g id="plus" transform="translate(5299 -1907)">
            <circle id="타원_177" cx="10" cy="10" r="10" fill="#fff" transform="translate(-3811 3955)"/>
            <g id="타원_165" fill="#fff" stroke="#010101" stroke-width="2px" transform="translate(-3809 3953)">
                <circle cx="10" cy="10" r="10" class="cls-6"/>
                <circle cx="10" cy="10" r="9" class="cls-8"/>
            </g>
            <g id="사각형_807" class="cls-5">
                <path d="M0 0H8V2H0z" class="cls-6" transform="translate(-3803 3962)"/>
                <path d="M0.5 0.5H7.5V1.5H0.5z" class="cls-8" transform="translate(-3803 3962)"/>
            </g>
            <g id="사각형_808" class="cls-5">
                <path d="M0 0H2V8H0z" class="cls-6" transform="translate(-3800 3959)"/>
                <path d="M0.5 0.5H1.5V7.5H0.5z" class="cls-8" transform="translate(-3800 3959)"/>
            </g>
        </g>
    </g>
</svg>
