<svg xmlns="http://www.w3.org/2000/svg" width="120" height="120" viewBox="0 0 120 120">
    <defs>
        <style>
            .cls-2{fill:#fff}.cls-2,.cls-3{stroke:#010101}.cls-2{stroke-width:2px}.cls-3{fill:#010101}.cls-5{stroke:none}.cls-6{fill:none}
        </style>
    </defs>
    <g id="ico_reward" transform="translate(-12 -118)">
        <g id="그룹_410" transform="translate(5 -9)">
            <g id="사각형_445" class="cls-2">
                <path d="M0 0h96v12a32 32 0 0 1-32 32H32A32 32 0 0 1 0 12V0z" class="cls-5" transform="translate(19 157)"/>
                <path d="M2 1h92a1 1 0 0 1 1 1v10a31 31 0 0 1-31 31H32A31 31 0 0 1 1 12V2a1 1 0 0 1 1-1z" class="cls-6" transform="translate(19 157)"/>
            </g>
            <g id="사각형_444" class="cls-2">
                <path d="M0 0h66v40a32 32 0 0 1-32 32h-2A32 32 0 0 1 0 40V0z" class="cls-5" transform="translate(34 142)"/>
                <path d="M2 1h62a1 1 0 0 1 1 1v38a31 31 0 0 1-31 31h-2A31 31 0 0 1 1 40V2a1 1 0 0 1 1-1z" class="cls-6" transform="translate(34 142)"/>
            </g>
            <g id="사각형_446" class="cls-3">
                <path d="M0 0H2V20H0z" class="cls-5" transform="translate(66 212)"/>
                <path d="M0.5 0.5H1.5V19.5H0.5z" class="cls-6" transform="translate(66 212)"/>
            </g>
            <g id="사각형_447" class="cls-3">
                <path d="M0 0H36V2H0z" class="cls-5" transform="translate(49 230)"/>
                <path d="M0.5 0.5H35.5V1.5H0.5z" class="cls-6" transform="translate(49 230)"/>
            </g>
            <g id="합치기_41" fill="#fff">
                <path d="M-7010.546-4997.544c-.868 0-1.683-.335-2.297-.943l-10.892-10.797c-1.146-1.135-1.777-2.644-1.777-4.248s.631-3.113 1.777-4.248c1.148-1.138 2.673-1.764 4.297-1.764 1.625 0 3.15.626 4.298 1.764l3.924 3.89.704.698.704-.699 3.924-3.89c1.148-1.137 2.675-1.763 4.299-1.763 1.623 0 3.148.626 4.296 1.764 1.146 1.134 1.777 2.643 1.777 4.247s-.631 3.113-1.777 4.247l-10.892 10.8c-.613.607-1.429.942-2.297.942h-.068z" class="cls-5" transform="translate(7077.512 5186.545)"/>
                <path fill="#010101" d="M-7010.546-4998.544h.068c.603 0 1.169-.232 1.593-.653l10.893-10.8c.954-.945 1.48-2.2 1.48-3.536 0-1.335-.526-2.591-1.481-3.537-.96-.951-2.235-1.474-3.592-1.474-1.359 0-2.635.523-3.595 1.474l-3.924 3.89-1.408 1.395-1.407-1.395-3.925-3.89c-.96-.951-2.235-1.474-3.593-1.474-1.359 0-2.635.523-3.594 1.474-.955.946-1.48 2.203-1.48 3.538s.525 2.592 1.48 3.538l10.892 10.797c.425.42.99.653 1.593.653m0 2c-1.086 0-2.172-.412-3-1.233l-10.893-10.797c-2.764-2.739-2.764-7.177 0-9.916 1.38-1.37 3.191-2.054 5.002-2.054 1.81 0 3.62.684 5.001 2.054l3.924 3.89 3.924-3.89c1.382-1.37 3.192-2.054 5.003-2.054 1.81 0 3.62.684 5 2.054 2.764 2.737 2.764 7.177 0 9.914l-10.892 10.8c-.829.82-1.915 1.232-3.001 1.232h-.068z" transform="translate(7077.512 5186.545)"/>
            </g>
        </g>
    </g>
</svg>
