<svg xmlns="http://www.w3.org/2000/svg" width="60" height="60" viewBox="0 0 60 60">
    <defs>
        <style>
            .cls-2,.cls-4{fill:#fff}.cls-2{stroke:#010101;stroke-width:2px}.cls-5,.cls-7{stroke:none}.cls-6{fill:none}.cls-7{fill:#010101}
        </style>
    </defs>
    <g id="ico_desiredgift" transform="translate(-1124 -2245)">
        <g id="그룹_421" transform="translate(4636 -1824)">
            <g id="사각형_789" class="cls-2">
                <path d="M0 0H44V11H0z" class="cls-5" transform="translate(-3504 4087)"/>
                <path d="M1 1H43V10H1z" class="cls-6" transform="translate(-3504 4087)"/>
            </g>
            <g id="사각형_790" class="cls-2">
                <path d="M0 0H36V25H0z" class="cls-5" transform="translate(-3500 4096)"/>
                <path d="M1 1H35V24H1z" class="cls-6" transform="translate(-3500 4096)"/>
            </g>
            <path id="사각형_829" fill="#010101" d="M0 0H2V34H0z" transform="translate(-3483 4087)"/>
            <g id="그룹_422" transform="translate(1)">
                <g id="합치기_42" class="cls-4">
                    <path d="M11 11H6c-2.757 0-5-2.243-5-5s2.243-5 5-5 5 2.243 5 5v5z" class="cls-5" transform="translate(-3494 4077)"/>
                    <path d="M10 10V6c0-2.206-1.794-4-4-4S2 3.794 2 6s1.794 4 4 4h4m2 2H6c-3.314 0-6-2.686-6-6s2.686-6 6-6 6 2.686 6 6v6z" class="cls-7" transform="translate(-3494 4077)"/>
                </g>
                <g id="합치기_48" class="cls-4">
                    <path d="M6 11c-2.757 0-5-2.243-5-5s2.243-5 5-5h5v5c0 2.757-2.243 5-5 5z" class="cls-5" transform="rotate(180 -1736 2044.5)"/>
                    <path d="M6 2C3.794 2 2 3.794 2 6s1.794 4 4 4 4-1.794 4-4V2H6m0-2h6v6c0 3.314-2.686 6-6 6S0 9.314 0 6s2.686-6 6-6z" class="cls-7" transform="rotate(180 -1736 2044.5)"/>
                </g>
            </g>
        </g>
        <g id="패스_3093" class="cls-4">
            <path d="M.923 14.846V1h8.03v13.832l-3.34-2.852-.646-.551-.648.548-3.396 2.869z" class="cls-5" transform="translate(1149 2263)"/>
            <path d="M1.923 2v10.692l1.75-1.48 1.298-1.095 1.292 1.102 1.69 1.444V2h-6.03m-2-2h10.03v17l-4.989-4.26L-.077 17V0z" class="cls-7" transform="translate(1149 2263)"/>
        </g>
    </g>
</svg>
