<svg xmlns="http://www.w3.org/2000/svg" width="60" height="60" viewBox="0 0 60 60">
    <defs>
        <style>
            .cls-4{fill:#fff;stroke:#010101}.cls-7{fill:none}.cls-6{stroke:none}
        </style>
    </defs>
    <g id="ico_tsorder" transform="translate(-1124 -2245)">
        <g id="그룹_423" transform="translate(1104.122 2240.215)">
            <path id="사각형_812" fill="#010101" d="M0 0H50V2H0z" transform="translate(24.878 56.785)"/>
            <g id="사각형_717" fill="#fff" stroke="#010101" stroke-width="2px">
                <path d="M0 0H38V48H0z" class="cls-6" transform="translate(30.878 10.785)"/>
                <path d="M1 1H37V47H1z" class="cls-7" transform="translate(30.878 10.785)"/>
            </g>
            <g id="사각형_718" class="cls-4">
                <path d="M0 0H8V2H0z" class="cls-6" transform="translate(45.878 16.785)"/>
                <path d="M0.5 0.5H7.5V1.5H0.5z" class="cls-7" transform="translate(45.878 16.785)"/>
            </g>
            <g id="그룹_425" transform="translate(-554.122 -2237.715)">
                <path id="패스_3089" fill="none" stroke="#010101" stroke-width="2px" d="M595.078 2268.136l3.377 9.844h.216l3.328-5.844 3.328 5.844h.266l3.406-9.844" transform="translate(2.422 2.364)"/>
                <g id="사각형_822" class="cls-4">
                    <path d="M0 0H4V2H0z" class="cls-6" transform="translate(595 2274)"/>
                    <path d="M0.5 0.5H3.5V1.5H0.5z" class="cls-7" transform="translate(595 2274)"/>
                </g>
                <g id="사각형_823" class="cls-4">
                    <path d="M0 0H4V2H0z" class="cls-6" transform="translate(610 2274)"/>
                    <path d="M0.5 0.5H3.5V1.5H0.5z" class="cls-7" transform="translate(610 2274)"/>
                </g>
            </g>
        </g>
    </g>
</svg>
