<svg xmlns="http://www.w3.org/2000/svg" width="120" height="120" viewBox="0 0 120 120">
    <defs>
        <style>
            .cls-3{fill:#fff;stroke:#010101}.cls-4{fill:#53575a}.cls-5{fill:#d60037}.cls-6{stroke:none}.cls-7{fill:none}
        </style>
    </defs>
    <g id="ico_oder">
        <g id="그룹_391" transform="translate(1)">
            <g id="사각형_717" fill="#fff" stroke="#010101" stroke-width="2px">
                <path d="M0 0H58V96H0z" class="cls-6" transform="translate(30 12)"/>
                <path d="M1 1H57V95H1z" class="cls-7" transform="translate(30 12)"/>
            </g>
            <g id="사각형_718" class="cls-3">
                <path d="M0 0H12V2H0z" class="cls-6" transform="translate(53 18)"/>
                <path d="M0.5 0.5H11.5V1.5H0.5z" class="cls-7" transform="translate(53 18)"/>
            </g>
            <g id="사각형_721" class="cls-3">
                <path d="M0 0H57V2H0z" class="cls-6" transform="translate(31 97)"/>
                <path d="M0.5 0.5H56.5V1.5H0.5z" class="cls-7" transform="translate(31 97)"/>
            </g>
        </g>
        <g id="로고" transform="translate(52 77.999)">
            <path id="패스_2738" d="M284.739 267.321h1.167v2.272h.572v-2.272h1.167v-.443h-2.906z" transform="translate(-295.474 -276.767)"/>
            <path id="패스_2739" d="M276.407 266.878l-1.25 2.715h.577l.305-.681v-.008h1.314v.008l.305.681h.585L277 266.878zm.752 1.583h-.917l.008-.019.438-.974.012-.028.012.028.437.974z" transform="translate(-290.157 -276.767)"/>
            <path id="패스_2740" d="M294.9 269.593h.552l.939-2.715h-.576l-.628 1.926-.013.039-.013-.039-.628-1.926h-.571l-.628 1.926-.013.039-.013-.039-.628-1.926h-.576l.939 2.715h.556l.635-1.863.013-.037.013.037.635 1.863z" transform="translate(-299.563 -276.767)"/>
            <path id="패스_2741" d="M302.687 269.162a1.706 1.706 0 0 0 2.2 0 1.388 1.388 0 0 0 .472-1.052 1.473 1.473 0 0 0-.406-1.011 1.706 1.706 0 0 0-2.337 0 1.474 1.474 0 0 0-.405 1.011 1.389 1.389 0 0 0 .476 1.052zm1.1-2.045a1.015 1.015 0 0 1 1.007.992.952.952 0 0 1-.294.685 1.022 1.022 0 0 1-1.427 0 .955.955 0 0 1-.293-.685 1.014 1.014 0 0 1 1.009-.991z" transform="translate(-305.17 -276.632)"/>
            <path id="패스_2742" d="M352.332 269.139v-2.261h-.548v2.715h2.352v-.453h-1.8z" transform="translate(-332.673 -276.767)"/>
            <path id="패스_2743" d="M336.617 269.14h-1.74v-.775h1.638v-.443h-1.638v-.622h1.689v-.443h-2.237v2.722h2.288z" transform="translate(-322.989 -276.758)"/>
            <path id="패스_2744" d="M374.037 269.14h-.013v-.775h1.639v-.443h-1.639v-.622h1.689v-.443h-2.237v2.722h2.288v-.443z" transform="translate(-344.709 -276.758)"/>
            <path id="패스_2745" d="M367.219 269.082h-.009a1.039 1.039 0 0 1-1.044-.982.959.959 0 0 1 .28-.69 1.045 1.045 0 0 1 .748-.3h.008a1.367 1.367 0 0 1 .972.408l.266-.42a1.888 1.888 0 0 0-1.244-.471 1.741 1.741 0 0 0-1.056.382 1.382 1.382 0 0 0-.535 1.1 1.513 1.513 0 0 0 1.544 1.447 1.756 1.756 0 0 0 1.315-.493l-.284-.412a1.256 1.256 0 0 1-.961.431z" transform="translate(-340.342 -276.629)"/>
            <path id="패스_2746" d="M344.978 268.7h.951a1.475 1.475 0 0 0 .767-.167.951.951 0 0 0 .011-1.5 1.48 1.48 0 0 0-.774-.166h-1.541v2.728h.585zm0-1.381h1.028a.547.547 0 0 1 .336.111.434.434 0 0 1 .16.351.466.466 0 0 1-.5.462h-1.028z" transform="translate(-328.573 -276.759)"/>
            <path id="패스_2747" d="M328.254 267.7v-.006h.033v1.894h.548v-2.715h-.692l-.859 1.453-.012.02-.012-.02-.861-1.453h-.689v2.715h.548V267.7h.033v.006l.827 1.356h.3z" transform="translate(-318.209 -276.767)"/>
            <path id="패스_2748" d="M311.675 269.109h-.035a1.966 1.966 0 0 1-1.11-.442l-.207.471a2.52 2.52 0 0 0 1.323.429 1.474 1.474 0 0 0 1.074-.347.76.76 0 0 0 .217-.562c-.009-.381-.25-.611-.759-.724-.112-.025-.3-.063-.464-.1l-.237-.049c-.262-.055-.517-.125-.52-.323 0-.174.19-.355.561-.363h.034a1.827 1.827 0 0 1 1.132.424l.223-.438a2.141 2.141 0 0 0-1.316-.45 1.423 1.423 0 0 0-.98.37.715.715 0 0 0-.214.533c.015.577.668.735 1.393.857.284.048.578.1.588.327a.26.26 0 0 1-.081.2.89.89 0 0 1-.622.187z" transform="translate(-309.669 -276.632)"/>
            <path id="패스_2749" d="M359.445 266.878l-1.25 2.715h.577l.306-.681v-.008h1.314v.008l.305.681h.585l-1.25-2.715zm.752 1.583h-.917l.008-.019.438-.974.012-.028.012.028.438.974z" transform="translate(-336.23 -276.767)"/>
            <path id="패스_2750" d="M320.037 267.1a1.706 1.706 0 0 0-2.338 0 1.476 1.476 0 0 0-.4 1.011 1.389 1.389 0 0 0 .471 1.052 1.706 1.706 0 0 0 2.2 0 1.387 1.387 0 0 0 .472-1.052 1.474 1.474 0 0 0-.405-1.011zm-.455 1.7a1.022 1.022 0 0 1-1.427 0 .953.953 0 0 1-.293-.685 1.007 1.007 0 0 1 2.014 0 .952.952 0 0 1-.295.679z" transform="translate(-313.537 -276.632)"/>
        </g>
        <g id="앰블럼" transform="translate(52 43)">
            <path id="사각형_499" d="M0 0H8V8H0z" class="cls-4" transform="translate(.001 1)"/>
            <path id="사각형_591" d="M0 0H8V8H0z" class="cls-4" transform="translate(8 9)"/>
            <path id="사각형_500" d="M0 0H8V8H0z" class="cls-5" transform="translate(8 1)"/>
            <path id="사각형_592" d="M0 0H8V8H0z" class="cls-5" transform="translate(0 9)"/>
        </g>
    </g>
</svg>
