<svg xmlns="http://www.w3.org/2000/svg" width="60" height="60" viewBox="0 0 60 60">
    <defs>
        <style>
            .cls-4{fill:#fff}.cls-3{fill:#010101}.cls-5,.cls-7{stroke:none}.cls-7{fill:#010101}
        </style>
    </defs>
    <g id="ico_oder_cake" transform="translate(-.5)">
        <g id="그룹_429" transform="translate(0 -2)">
            <g id="그룹_428" transform="translate(-595.5 -903)">
                <g id="사각형_831" fill="#fff" stroke="#010101" stroke-width="2px">
                    <path d="M0 0H38V26H0z" class="cls-5" transform="translate(607 928)"/>
                    <path fill="none" d="M1 1H37V25H1z" transform="translate(607 928)"/>
                </g>
                <path id="사각형_833" d="M0 0H35V2H0z" class="cls-3" transform="translate(609 944)"/>
                <g id="그룹_427" transform="translate(-5 757)">
                    <path id="사각형_834" d="M0 0H2V6H0z" class="cls-3" transform="translate(630 163)"/>
                    <g id="패스_3097" class="cls-4">
                        <path d="M4 7.429c-1.654 0-3-1.346-3-3C1 4.1 1.18 3.053 2.845.42c.409-.646.82-1.247 1.158-1.727C5.437.724 7 3.347 7 4.43c0 1.654-1.346 3-3 3z" class="cls-5" transform="translate(627 158)"/>
                        <path d="M4 .474c-.094.144-.19.292-.285.442C2.045 3.548 2.001 4.396 2 4.429c0 1.102.897 2 2 2S6 5.53 6 4.43c-.001-.034-.045-.878-1.7-3.492C4.2.781 4.1.626 4 .474M4-3s4 5.22 4 7.429c0 2.209-1.79 4-4 4s-4-1.791-4-4C0 2.219 4-3 4-3z" class="cls-7" transform="translate(627 158)"/>
                    </g>
                    <path id="사각형_835" d="M0 0H2V6H0z" class="cls-3" transform="translate(619 163)"/>
                    <g id="패스_3098" class="cls-4">
                        <path d="M4 7.429c-1.654 0-3-1.346-3-3C1 4.1 1.18 3.053 2.845.42c.409-.646.82-1.247 1.158-1.727C5.437.724 7 3.347 7 4.43c0 1.654-1.346 3-3 3z" class="cls-5" transform="translate(616 158)"/>
                        <path d="M4 .474c-.094.144-.19.292-.285.442C2.045 3.548 2.001 4.396 2 4.429c0 1.102.897 2 2 2S6 5.53 6 4.43c-.001-.034-.045-.878-1.7-3.492C4.2.781 4.1.626 4 .474M4-3s4 5.22 4 7.429c0 2.209-1.79 4-4 4s-4-1.791-4-4C0 2.219 4-3 4-3z" class="cls-7" transform="translate(616 158)"/>
                    </g>
                    <path id="사각형_836" d="M0 0H2V6H0z" class="cls-3" transform="translate(641 163)"/>
                    <g id="패스_3099" class="cls-4">
                        <path d="M4 7.429c-1.654 0-3-1.346-3-3C1 4.1 1.18 3.053 2.845.42c.409-.646.82-1.247 1.158-1.727C5.437.724 7 3.347 7 4.43c0 1.654-1.346 3-3 3z" class="cls-5" transform="translate(638 158)"/>
                        <path d="M4 .474c-.094.144-.19.292-.285.442C2.045 3.548 2.001 4.396 2 4.429c0 1.102.897 2 2 2S6 5.53 6 4.43c-.001-.034-.045-.878-1.7-3.492C4.2.781 4.1.626 4 .474M4-3s4 5.22 4 7.429c0 2.209-1.79 4-4 4s-4-1.791-4-4C0 2.219 4-3 4-3z" class="cls-7" transform="translate(638 158)"/>
                    </g>
                </g>
            </g>
            <g id="합치기_50" class="cls-4">
                <path d="M903-7432.499h-48c-.276 0-.5-.225-.5-.501v-5c0-.276.224-.5.5-.5s.5.224.5.5v4.5h47v-4.5c0-.276.224-.5.5-.5.275 0 .5.224.5.5v5c0 .276-.225.501-.5.501z" class="cls-5" transform="translate(-848.499 7489)"/>
                <path d="M903-7432.999v-.001h-48v-5 5.001h48m0 1h-48c-.552 0-1-.448-1-1.001v-5c0-.552.448-1 1-1 .553 0 1 .448 1 1v4h46v-4c0-.552.448-1 1-1s1 .448 1 1v5c0 .553-.448 1.001-1 1.001z" class="cls-7" transform="translate(-848.499 7489)"/>
            </g>
        </g>
    </g>
</svg>
